# File created by Blade
# Date/Time:  Fri Jan 16 19:00:24 2015
# Frame Rate: 120.000 fps
#------------------------------------------------------
:FULLY-SPECIFIED
:DEGREES
2599
root 19.024503 37.065706 -21.110837 -208.104949 -6.153479 -158.489474
Spine 34.007744 -9.265672 17.897837
Head -2.809193 -5.747317 4.156341
LeftShoulder -7.529065 -30.964923 11.184153
LeftArm -8.383053 -9.322912 -13.932392
LeftForeArm -5.385314 -0.000000 4.743810
LeftHand -2.736073 -0.000000 1.671377
LeftHandThumb1 -26.253704 0.000000 33.147579
RightShoulder -9.507868 -3.924056 1.848652
RightArm 3.568747 46.524111 35.307444
RightForeArm -33.783912 -0.000000 38.549439
RightHand -15.101447 -0.000000 -4.127215
RightHandThumb1 -24.326973 -0.000000 -32.862282
LeftUpLeg 19.226209 4.532278 18.263122
LeftLeg 12.456079 -0.000000 -0.000000
LeftFoot -23.121589 15.131647 -11.580446
LeftToeBase 23.116004 -0.000000 -0.000000
RightUpLeg -109.321558 0.274671 15.614280
RightLeg 116.914474 -0.000000 -0.000000
RightFoot 32.519991 -32.277646 -19.443211
RightToeBase 21.182643 -0.000000 -0.000000
2600
root 19.026017 37.076977 -21.142781 -208.390991 -6.346984 -158.287336
Spine 34.343720 -9.648635 18.080946
Head -3.148617 -5.667878 3.863246
LeftShoulder -7.400035 -31.067124 11.060786
LeftArm -8.697054 -9.285106 -13.744617
LeftForeArm -5.269997 -0.000000 5.015661
LeftHand -2.774714 -0.000000 1.676065
LeftHandThumb1 -26.253704 0.000000 33.147579
RightShoulder -9.353605 -3.823125 1.649156
RightArm 3.044606 46.958519 34.917162
RightForeArm -33.976872 -0.000000 38.904292
RightHand -15.118132 0.000000 -4.010260
RightHandThumb1 -24.326973 -0.000000 -32.862282
LeftUpLeg 19.339529 4.461538 18.492751
LeftLeg 12.581744 -0.000000 -0.000000
LeftFoot -23.255730 15.046996 -11.700392
LeftToeBase 23.480561 -0.000000 -0.000000
RightUpLeg -110.549207 0.020648 15.686154
RightLeg 117.415822 -0.000000 -0.000000
RightFoot 32.483563 -32.031500 -19.488644
RightToeBase 21.708406 -0.000000 -0.000000
2601
root 19.029134 37.087492 -21.165975 -208.572550 -6.527577 -158.079660
Spine 34.578988 -9.991534 18.294630
Head -3.523593 -5.539693 3.589884
LeftShoulder -7.288566 -31.192527 10.947081
LeftArm -9.027051 -9.209562 -13.597526
LeftForeArm -5.141242 -0.000000 5.296190
LeftHand -2.811572 0.000000 1.785497
LeftHandThumb1 -26.253704 0.000000 33.147579
RightShoulder -9.268062 -3.736692 1.485033
RightArm 2.601665 47.291947 34.519969
RightForeArm -33.948650 0.000000 39.235609
RightHand -15.065119 -0.000000 -3.861985
RightHandThumb1 -24.326973 -0.000000 -32.862282
LeftUpLeg 19.322609 4.416753 18.724768
LeftLeg 12.749331 -0.000000 -0.000000
LeftFoot -23.375942 14.940842 -11.782727
LeftToeBase 23.802332 -0.000000 -0.000000
RightUpLeg -111.739207 -0.201242 15.869804
RightLeg 117.839817 -0.000000 -0.000000
RightFoot 32.420115 -31.921622 -19.525367
RightToeBase 22.226231 -0.000000 -0.000000
2602
root 19.035985 37.092576 -21.177248 -208.650095 -6.663498 -157.907015
Spine 34.755842 -10.239600 18.498679
Head -3.943834 -5.477423 3.347584
LeftShoulder -7.188601 -31.361138 10.868261
LeftArm -9.342284 -9.116155 -13.462052
LeftForeArm -5.052311 -0.000000 5.488041
LeftHand -2.850637 -0.000000 1.970029
LeftHandThumb1 -26.253704 0.000000 33.147579
RightShoulder -9.115974 -3.592953 1.308934
RightArm 1.982978 47.580995 34.071564
RightForeArm -34.137264 -0.000000 39.575615
RightHand -15.187844 0.000000 -4.031600
RightHandThumb1 -24.326973 -0.000000 -32.862282
LeftUpLeg 19.198231 4.461269 18.945580
LeftLeg 12.941713 -0.000000 -0.000000
LeftFoot -23.494988 14.853334 -11.814653
LeftToeBase 24.072816 -0.000000 -0.000000
RightUpLeg -112.856816 -0.310896 16.113692
RightLeg 118.170615 -0.000000 -0.000000
RightFoot 32.386952 -31.728080 -19.691723
RightToeBase 22.565541 -0.000000 -0.000000
2603
root 19.040437 37.100760 -21.179824 -208.713208 -6.783495 -157.731646
Spine 34.951980 -10.587918 18.651977
Head -4.370842 -5.267983 3.103895
LeftShoulder -7.214355 -31.560202 10.825044
LeftArm -9.680378 -9.088739 -13.272394
LeftForeArm -4.945052 -0.000000 5.645992
LeftHand -2.850625 -0.000000 2.101825
LeftHandThumb1 -26.253704 0.000000 33.147579
RightShoulder -8.880810 -3.459257 1.112953
RightArm 1.478007 47.877614 33.680296
RightForeArm -34.242063 0.000000 39.832443
RightHand -15.177956 -0.000000 -4.219264
RightHandThumb1 -24.326973 -0.000000 -32.862282
LeftUpLeg 19.065087 4.506390 19.158816
LeftLeg 13.102093 -0.000000 -0.000000
LeftFoot -23.573705 14.803989 -11.865739
LeftToeBase 24.266786 -0.000000 -0.000000
RightUpLeg -113.802175 -0.406159 16.447644
RightLeg 118.414061 -0.000000 -0.000000
RightFoot 32.417989 -31.810083 -19.625787
RightToeBase 21.957852 -0.000000 -0.000000
2604
root 19.042763 37.103639 -21.174875 -208.656960 -6.847020 -157.609873
Spine 35.031133 -10.659630 18.912527
Head -4.829363 -5.314774 2.885672
LeftShoulder -7.035941 -31.809668 10.697826
LeftArm -10.031733 -9.084700 -13.111004
LeftForeArm -4.874253 -0.000000 5.795661
LeftHand -2.858359 -0.000000 2.150392
LeftHandThumb1 -26.253704 0.000000 33.147579
RightShoulder -8.850314 -3.255873 0.975002
RightArm 0.865390 48.010718 33.149971
RightForeArm -34.212297 -0.000000 40.116666
RightHand -15.627606 -0.000000 -4.428245
RightHandThumb1 -24.326973 -0.000000 -32.862282
LeftUpLeg 18.866164 4.615340 19.319333
LeftLeg 13.226004 -0.000000 -0.000000
LeftFoot -23.621292 14.858900 -11.793115
LeftToeBase 24.391061 -0.000000 -0.000000
RightUpLeg -114.684119 -0.416663 16.821193
RightLeg 118.597342 -0.000000 -0.000000
RightFoot 32.227209 -31.772640 -19.454313
RightToeBase 21.951464 -0.000000 -0.000000
2605
root 19.043554 37.103554 -21.160190 -208.536803 -6.882839 -157.544363
Spine 35.070364 -10.762180 19.071304
Head -5.199170 -5.194065 2.693213
LeftShoulder -6.966498 -32.052333 10.587441
LeftArm -10.333820 -9.117597 -12.870928
LeftForeArm -4.760284 -0.000000 5.825948
LeftHand -2.838815 0.000000 2.158921
LeftHandThumb1 -26.253704 0.000000 33.147579
RightShoulder -8.740855 -3.112349 0.848191
RightArm 0.569453 48.527374 32.878749
RightForeArm -34.520904 0.000000 40.238348
RightHand -15.527961 -0.000000 -4.407189
RightHandThumb1 -24.326973 -0.000000 -32.862282
LeftUpLeg 18.646004 4.746913 19.406392
LeftLeg 13.281574 -0.000000 -0.000000
LeftFoot -23.663626 14.993224 -11.789836
LeftToeBase 24.513856 -0.000000 -0.000000
RightUpLeg -115.428643 -0.360258 17.232540
RightLeg 118.710989 -0.000000 -0.000000
RightFoot 32.111537 -31.707739 -19.428837
RightToeBase 21.720743 -0.000000 -0.000000
